<svg width="100" height="100" viewBox="0 0 100 100" fill="none" xmlns="http://www.w3.org/2000/svg">
<g clip-path="url(#clip0_434_2848)">
<path d="M100 0H0V100H100V0Z" fill="black"/>
<path d="M26.91 35.6098C26.12 35.6098 24.97 35.1898 24.44 34.6098C23.76 33.9298 23.44 33.1998 23.18 32.2498C21.08 33.6598 18.51 35.6098 16.88 35.6098C13.15 35.6098 10.48 32.5098 10.48 29.1498C10.48 26.5798 11.9 24.8998 14.78 23.8998C17.98 22.7998 21.92 21.4298 23.07 20.4898V19.4398C23.07 15.7098 21.18 13.5598 18.45 13.5598C17.24 13.5598 16.51 14.1398 15.98 14.7698C15.4 15.5098 15.04 16.6598 14.56 18.1798C14.3 19.0198 13.82 19.3898 13.04 19.3898C12.04 19.3898 10.73 18.3398 10.73 17.0798C10.73 16.3398 11.41 15.7198 12.46 14.9798C13.98 13.8798 17.03 11.9398 20.02 11.2998C21.6 11.2998 23.22 11.7698 24.43 12.7198C26.27 14.2898 27.11 16.0798 27.11 18.8098V28.9398C27.11 31.3498 28 32.0898 28.95 32.0898C29.58 32.0898 30.26 31.8198 30.84 31.5098L31.37 32.9798L26.91 35.5998V35.6098ZM23.08 22.3298C21.93 22.9098 19.41 24.0098 18.2 24.5398C16.2 25.4298 15 26.4298 15 28.3698C15 31.1498 17.1 32.4098 18.78 32.4098C20.15 32.4098 22.03 31.5698 23.08 30.5198V22.3298Z" fill="white"/>
<path d="M40.8199 54.4298V53.2498C43.2999 52.9998 43.5899 52.8298 43.5899 49.8898V42.8798C43.5899 39.8998 42.5799 38.0098 39.9799 38.0098C38.3899 38.0098 36.9199 38.8898 35.3199 40.1898C35.3599 40.6898 35.4399 41.1998 35.4399 41.9898V50.1298C35.4399 52.7698 35.8199 52.9798 38.1299 53.2298V54.4098H29.1499V53.2298C31.7499 52.9798 32.1299 52.8098 32.1299 50.0398V42.8198C32.1299 39.7098 31.1599 37.9898 28.5999 37.9898C26.9199 37.9898 25.2799 39.1198 23.9799 40.1698V50.0298C23.9799 52.7998 24.2699 52.9698 26.6699 53.2198V54.3998H17.6399V53.2198C20.4099 52.9698 20.6599 52.7998 20.6599 50.0298V41.3398C20.6599 38.6498 20.4899 38.4898 18.1399 38.0698V37.0198C20.1099 36.7298 22.0899 36.1798 23.9699 35.3398V38.7398C24.8499 38.0698 25.7299 37.3598 27.0799 36.5598C28.1299 35.8898 29.0499 35.4698 30.3999 35.4698C32.4099 35.4698 34.1399 36.7298 34.9699 38.9098C36.1499 37.9898 37.2399 37.2798 38.2899 36.5598C39.2099 35.9698 40.3899 35.4698 41.6099 35.4698C44.8799 35.4698 46.8999 37.8198 46.8999 41.9398V50.0398C46.8999 52.8498 47.1499 52.9798 49.5399 53.2298V54.4098H40.8099L40.8199 54.4298Z" fill="white"/>
<path d="M68.4401 11.47C80.4701 11.47 89.4101 20.61 89.4101 33.01C89.4101 48.59 77.8701 56 68.4401 56C55.1701 56 47.0901 45.32 47.0901 34.55C47.0901 18.87 59.3101 11.46 68.4401 11.46V11.47ZM67.2801 14.74C61.4101 14.74 56.1201 20.42 56.1201 31.57C56.1201 43.79 61.5101 52.64 69.3901 52.64C75.3501 52.64 80.3601 48.31 80.3601 35.14C80.3601 23.89 75.7401 14.75 67.2701 14.75L67.2801 14.74Z" fill="white"/>
<path d="M52.6501 89.7402V87.6202C57.0301 87.1702 57.4801 86.6402 57.4801 81.5102V69.0402C57.4801 63.7602 55.5901 60.2002 50.6001 60.2002C47.5101 60.2002 44.5601 62.0102 42.2201 64.1302V81.8102C42.2201 87.0202 42.6801 87.1702 47.1301 87.6202V89.7402H30.8201V87.6202C35.8101 87.0902 36.2601 86.7902 36.2601 81.8102V66.2502C36.2601 61.3402 35.7301 61.1102 31.6501 60.4302V58.4702C35.3501 57.8702 39.0501 56.8802 42.2201 55.4502V61.4202C43.7301 60.3602 45.3901 59.2302 47.3601 57.9402C49.4801 56.5802 51.4401 55.6702 53.6301 55.6702C59.6801 55.6702 63.4501 60.1302 63.4501 67.4502V81.8102C63.4501 86.9502 63.9101 87.1702 68.2801 87.6202V89.7402H52.6501Z" fill="white"/>
<path d="M72.6401 78.95C72.0001 79.29 71.4001 79.44 71.0201 79.44C68.6101 79.44 67.3201 77.97 67.3201 74.95V63.97H64.7201L64.5701 63.52L65.5901 62.43H67.3201V59.26C68.0401 58.51 69.1301 57.52 69.8501 56.77L70.4201 56.84C70.3401 58.43 70.3101 60.61 70.3101 62.42H74.6101C74.9501 62.8 74.8301 63.63 74.3801 63.97H70.3101V73.63C70.3101 76.69 71.5201 77.25 72.5001 77.25C73.4101 77.25 74.2701 76.91 74.8001 76.65L75.1401 77.63L72.6501 78.95H72.6401Z" fill="white"/>
<path d="M76.1801 35.3698C76.1801 34.1198 75.2301 32.9998 73.7401 32.2198C73.9601 31.7498 74.1001 31.2498 74.1001 30.7098C74.1001 29.2398 73.1801 27.9498 71.7801 27.1898C71.9301 26.6898 72.0201 26.1398 72.0201 25.5598C72.0201 23.2298 70.6201 21.3398 68.9001 21.3398C67.1801 21.3398 65.7801 23.2298 65.7801 25.5598C65.7801 26.1398 65.8701 26.6898 66.0201 27.1898C64.6201 27.9498 63.7001 29.2398 63.7001 30.7098C63.7001 31.2398 63.8301 31.7498 64.0601 32.2198C62.5701 32.9898 61.6201 34.1198 61.6201 35.3698C61.6201 36.5498 62.4501 37.6098 63.7801 38.3698C63.7401 38.5898 63.7001 38.8098 63.7001 39.0398C63.7001 40.5098 64.6201 41.7998 66.0201 42.5598C65.8701 43.0598 65.7801 43.6098 65.7801 44.1898C65.7801 46.5198 67.1801 48.4098 68.9001 48.4098C70.6201 48.4098 72.0201 46.5198 72.0201 44.1898C72.0201 43.6098 71.9301 43.0598 71.7801 42.5598C73.1801 41.7998 74.1001 40.5098 74.1001 39.0398C74.1001 38.8098 74.0601 38.5898 74.0201 38.3698C75.3601 37.5998 76.1801 36.5398 76.1801 35.3698Z" stroke="white" stroke-miterlimit="10"/>
<path d="M68.9298 24.9399C69.6098 32.0099 69.6198 39.0899 68.9298 46.1499C68.2398 39.0799 68.2498 31.9999 68.9298 24.9399Z" fill="white"/>
<path d="M66.1399 35.65C68.0099 34.97 69.9099 34.96 71.7699 35.65C69.8999 36.34 67.9999 36.33 66.1399 35.65Z" fill="white"/>
</g>
<defs>
<clipPath id="clip0_434_2848">
<rect width="100" height="100" fill="white"/>
</clipPath>
</defs>
</svg>
