<svg width="100" height="99" viewBox="0 0 100 99" fill="none" xmlns="http://www.w3.org/2000/svg">
<g clip-path="url(#clip0_62_1761)">
<path d="M27.29 34.3001C26.51 34.3001 25.37 33.8801 24.86 33.3101C24.19 32.6401 23.88 31.9201 23.62 30.9801C21.55 32.3701 19.01 34.2901 17.41 34.2901C13.74 34.2901 11.1 31.2301 11.1 27.9201C11.1 25.3801 12.5 23.7301 15.34 22.7501C18.5 21.6601 22.38 20.3201 23.52 19.3901V18.3501C23.52 14.6801 21.66 12.5601 18.97 12.5601C17.78 12.5601 17.05 13.1301 16.54 13.7501C15.97 14.4701 15.61 15.6101 15.14 17.1101C14.88 17.9401 14.42 18.3001 13.64 18.3001C12.66 18.3001 11.36 17.2601 11.36 16.0201C11.36 15.3001 12.03 14.6801 13.07 13.9501C14.57 12.8601 17.57 10.9501 20.52 10.3301C22.07 10.3301 23.68 10.8001 24.87 11.7301C26.68 13.2801 27.51 15.0401 27.51 17.7401V27.7301C27.51 30.1101 28.39 30.8401 29.32 30.8401C29.94 30.8401 30.61 30.5801 31.18 30.2701L31.7 31.7201L27.3 34.3101L27.29 34.3001ZM23.51 21.2001C22.37 21.7701 19.89 22.8601 18.7 23.3701C16.73 24.2501 15.54 25.2301 15.54 27.1501C15.54 29.8901 17.61 31.1301 19.27 31.1301C20.62 31.1301 22.48 30.3001 23.51 29.2701V21.2001Z" fill="#FFC23E" stroke="#E9A674" stroke-width="0.39" stroke-miterlimit="10"/>
<path d="M41 52.8498V51.6898C43.44 51.4398 43.73 51.2798 43.73 48.3798V41.4698C43.73 38.5298 42.74 36.6698 40.17 36.6698C38.6 36.6698 37.15 37.5398 35.58 38.8198C35.62 39.3198 35.7 39.8098 35.7 40.5998V48.6298C35.7 51.2298 36.07 51.4398 38.35 51.6898V52.8498H29.49V51.6898C32.06 51.4398 32.43 51.2798 32.43 48.5498V41.4298C32.43 38.3698 31.48 36.6698 28.95 36.6698C27.29 36.6698 25.68 37.7898 24.4 38.8198V48.5498C24.4 51.2798 24.69 51.4498 27.05 51.6898V52.8498H18.15V51.6898C20.88 51.4398 21.13 51.2798 21.13 48.5498V39.9798C21.13 37.3298 20.96 37.1698 18.65 36.7498V35.7198C20.59 35.4298 22.54 34.8898 24.4 34.0698V37.4198C25.27 36.7598 26.14 36.0598 27.46 35.2698C28.49 34.6098 29.41 34.1898 30.73 34.1898C32.72 34.1898 34.41 35.4298 35.24 37.5798C36.4 36.6698 37.48 35.9698 38.51 35.2598C39.42 34.6798 40.58 34.1798 41.78 34.1798C45.01 34.1798 46.99 36.4998 46.99 40.5598V48.5498C46.99 51.3198 47.24 51.4498 49.6 51.6898V52.8498H40.99H41Z" fill="#FFC23E" stroke="#E9A674" stroke-width="0.39" stroke-miterlimit="10"/>
<path d="M68.23 10.5C80.09 10.5 88.9 19.51 88.9 31.74C88.9 47.1 77.52 54.41 68.23 54.41C55.15 54.41 47.18 43.88 47.18 33.26C47.18 17.8 59.22 10.5 68.23 10.5ZM67.09 13.73C61.31 13.73 56.09 19.33 56.09 30.32C56.09 42.36 61.4 51.09 69.18 51.09C75.06 51.09 79.99 46.82 79.99 33.83C79.99 22.73 75.43 13.72 67.09 13.72V13.73Z" fill="#FFC23E" stroke="#E9A674" stroke-width="0.39" stroke-miterlimit="10"/>
<path d="M52.67 87.6601V85.5701C56.99 85.1301 57.44 84.6101 57.44 79.5401V67.2501C57.44 62.0401 55.58 58.5401 50.66 58.5401C47.61 58.5401 44.71 60.3301 42.39 62.4101V79.8401C42.39 84.9801 42.84 85.1301 47.23 85.5701V87.6601H31.14V85.5701C36.06 85.0501 36.51 84.7501 36.51 79.8401V64.5001C36.51 59.6601 35.99 59.4401 31.97 58.7601V56.8301C35.61 56.2401 39.27 55.2701 42.39 53.8501V59.7301C43.88 58.6901 45.52 57.5701 47.45 56.3001C49.54 54.9601 51.47 54.0601 53.63 54.0601C59.59 54.0601 63.31 58.4601 63.31 65.6801V79.8301C63.31 84.8901 63.76 85.1201 68.08 85.5601V87.6501H52.67V87.6601Z" fill="#FFC23E" stroke="#E9A674" stroke-width="0.39" stroke-miterlimit="10"/>
<path d="M72.38 77.0299C71.75 77.3699 71.15 77.5099 70.78 77.5099C68.4 77.5099 67.13 76.0599 67.13 73.0799V62.2599H64.56L64.41 61.8099L65.42 60.7299H67.13V57.5999C67.84 56.8599 68.92 55.8899 69.62 55.1499L70.18 55.2199C70.1 56.7799 70.07 58.9399 70.07 60.7299H74.31C74.64 61.0999 74.53 61.9199 74.09 62.2499H70.07V71.7699C70.07 74.7799 71.26 75.3399 72.23 75.3399C73.12 75.3399 73.98 75.0099 74.5 74.7499L74.84 75.7199L72.38 77.0199V77.0299Z" fill="#FFC23E" stroke="#E9A674" stroke-width="0.39" stroke-miterlimit="10"/>
<path d="M75.87 34.06C75.87 32.83 74.94 31.72 73.47 30.96C73.69 30.5 73.82 30 73.82 29.48C73.82 28.03 72.91 26.76 71.53 26.01C71.68 25.52 71.77 24.97 71.77 24.41C71.77 22.11 70.39 20.25 68.69 20.25C66.99 20.25 65.61 22.11 65.61 24.41C65.61 24.98 65.7 25.52 65.85 26.01C64.47 26.76 63.56 28.03 63.56 29.48C63.56 30 63.69 30.5 63.91 30.96C62.44 31.72 61.51 32.83 61.51 34.06C61.51 35.22 62.33 36.27 63.64 37.02C63.6 37.24 63.56 37.45 63.56 37.68C63.56 39.13 64.47 40.4 65.85 41.15C65.7 41.64 65.61 42.19 65.61 42.75C65.61 45.05 66.99 46.92 68.69 46.92C70.39 46.92 71.77 45.06 71.77 42.75C71.77 42.18 71.68 41.64 71.53 41.15C72.91 40.4 73.82 39.13 73.82 37.68C73.82 37.45 73.78 37.24 73.74 37.02C75.06 36.27 75.87 35.22 75.87 34.06Z" fill="#FFC23E" stroke="#E9A674" stroke-width="0.39" stroke-miterlimit="10"/>
<path d="M68.72 23.54C69.6 30.5 69.61 37.51 68.72 44.46C67.83 37.51 67.84 30.5 68.72 23.54Z" fill="#FFFF38"/>
<path d="M65.97 34.1003C67.77 33.2103 69.76 33.2203 71.52 34.1003C69.76 34.9803 67.77 34.9903 65.97 34.1003Z" fill="#FFFF38"/>
</g>
<defs>
<clipPath id="clip0_62_1761">
<rect width="100" height="100" fill="white" transform="translate(0 -1)"/>
</clipPath>
</defs>
</svg>
